<svg xmlns="http://www.w3.org/2000/svg" version="1.1" xmlns:xlink="http://www.w3.org/1999/xlink" width="512" height="512"><svg xmlns="http://www.w3.org/2000/svg" version="1.1" xmlns:xlink="http://www.w3.org/1999/xlink" width="512" height="512"><svg width="512" height="512" viewBox="0 0 512 512" fill="none" xmlns="http://www.w3.org/2000/svg">
<g clip-path="url(#clip0_1709_157)">
<path d="M0 256C0 135.32 0 74.9806 37.4903 37.4903C74.9806 0 135.32 0 256 0C376.68 0 437.019 0 474.51 37.4903C512 74.9806 512 135.32 512 256C512 376.68 512 437.019 474.51 474.51C437.019 512 376.68 512 256 512C135.32 512 74.9806 512 37.4903 474.51C0 437.019 0 376.68 0 256Z" fill="#DC2626"></path>
<path d="M307.199 332.8C314.269 332.8 320.129 338.587 318.724 345.516C316.242 357.752 310.214 369.094 301.254 378.054C289.252 390.057 272.973 396.8 255.999 396.8C239.025 396.8 222.747 390.057 210.745 378.054C201.785 369.094 195.756 357.752 193.275 345.516C191.87 338.587 197.73 332.8 204.799 332.8H307.199Z" fill="white"></path>
<path d="M334.109 227.539C327.28 229.368 323.098 236.512 326.561 242.675C330.205 249.162 335.245 254.824 341.378 259.218C351.006 266.117 362.728 269.465 374.549 268.69C386.369 267.915 397.555 263.067 406.2 254.969C414.846 246.872 420.415 236.027 421.962 224.283C423.508 212.539 420.935 200.622 414.68 190.562C408.424 180.504 398.874 172.925 387.658 169.117C376.441 165.309 364.251 165.509 353.165 169.682C346.105 172.339 339.771 176.503 334.572 181.825C329.633 186.882 331.823 194.866 337.945 198.4L344.438 202.149C354.314 207.851 352.367 222.647 341.351 225.599L334.109 227.539Z" fill="white"></path>
<path d="M177.893 227.539C184.721 229.368 188.903 236.512 185.441 242.675C181.797 249.162 176.756 254.824 170.625 259.218C160.997 266.117 149.273 269.465 137.454 268.69C125.633 267.915 114.447 263.067 105.802 254.969C97.1562 246.872 91.5858 236.027 90.0397 224.283C88.4936 212.539 91.0673 200.622 97.3225 190.562C103.578 180.504 113.127 172.925 124.344 169.117C135.56 165.309 147.751 165.509 158.837 169.682C165.896 172.339 172.231 176.503 177.431 181.825C182.37 186.882 180.179 194.866 174.056 198.4L167.563 202.149C157.688 207.851 159.636 222.647 170.65 225.599L177.893 227.539Z" fill="white"></path>
</g>
<defs>
<clipPath id="clip0_1709_157">
<rect width="512" height="512" fill="white"></rect>
</clipPath>
</defs>
</svg></svg><style>@media (prefers-color-scheme: light) { :root { filter: none; } }
@media (prefers-color-scheme: dark) { :root { filter: none; } }
</style></svg>