<svg width="239" height="64" viewBox="0 0 239 64" fill="none" xmlns="http://www.w3.org/2000/svg">
<g clip-path="url(#clip0_1739_151)">
<path d="M0 32C0 16.915 0 9.37258 4.68629 4.68629C9.37258 0 16.915 0 32 0C47.085 0 54.6274 0 59.3138 4.68629C64 9.37258 64 16.915 64 32C64 47.085 64 54.6274 59.3138 59.3138C54.6274 64 47.085 64 32 64C16.915 64 9.37258 64 4.68629 59.3138C0 54.6274 0 47.085 0 32Z" fill="#DC2626"/>
<path d="M38.4 41.6001C39.2837 41.6001 40.0162 42.3235 39.8406 43.1895C39.5304 44.7191 38.7768 46.1369 37.6568 47.2569C36.1566 48.7572 34.1218 49.6001 32 49.6001C29.8782 49.6001 27.8435 48.7572 26.3432 47.2569C25.2232 46.1369 24.4696 44.7191 24.1595 43.1895C23.9838 42.3235 24.7163 41.6001 25.6 41.6001H38.4Z" fill="white"/>
<path d="M41.7638 28.4424C40.9102 28.6711 40.3875 29.564 40.8203 30.3344C41.2758 31.1453 41.9059 31.853 42.6724 32.4023C43.876 33.2647 45.3412 33.6832 46.8188 33.5863C48.2963 33.4895 49.6945 32.8834 50.7752 31.8712C51.856 30.8591 52.5521 29.5034 52.7454 28.0354C52.9387 26.5674 52.6171 25.0778 51.8352 23.8204C51.0532 22.5631 49.8595 21.6157 48.4574 21.1397C47.0553 20.6637 45.5316 20.6887 44.1459 21.2103C43.2633 21.5424 42.4716 22.0629 41.8217 22.7282C41.2043 23.3604 41.478 24.3583 42.2433 24.8L43.055 25.2687C44.2894 25.9815 44.046 27.8309 42.6691 28.1999L41.7638 28.4424Z" fill="white"/>
<path d="M22.2366 28.4424C23.0902 28.6711 23.6129 29.564 23.1801 30.3344C22.7246 31.1453 22.0945 31.853 21.3281 32.4023C20.1246 33.2647 18.6591 33.6832 17.1817 33.5863C15.7041 33.4895 14.3059 32.8834 13.2252 31.8712C12.1445 30.8591 11.4482 29.5034 11.255 28.0354C11.0617 26.5674 11.3834 25.0778 12.1653 23.8204C12.9472 22.5631 14.1409 21.6157 15.543 21.1397C16.9451 20.6637 18.4689 20.6887 19.8547 21.2103C20.7371 21.5424 21.5289 22.0629 22.1788 22.7282C22.7963 23.3604 22.5223 24.3583 21.7571 24.8L20.9454 25.2687C19.711 25.9815 19.9545 27.8309 21.3313 28.1999L22.2366 28.4424Z" fill="white"/>
</g>
<path d="M99.646 18.1H106.45V47.5H99.646V18.1ZM86.29 47.5H79.486V18.1H86.29V47.5ZM100.15 35.446H85.786V29.692H100.15V35.446ZM122.016 47.836C119.608 47.836 117.466 47.332 115.59 46.324C113.742 45.316 112.272 43.944 111.18 42.208C110.116 40.444 109.584 38.442 109.584 36.202C109.584 33.934 110.116 31.932 111.18 30.196C112.272 28.432 113.742 27.06 115.59 26.08C117.466 25.072 119.608 24.568 122.016 24.568C124.396 24.568 126.524 25.072 128.4 26.08C130.276 27.06 131.746 28.418 132.81 30.154C133.874 31.89 134.406 33.906 134.406 36.202C134.406 38.442 133.874 40.444 132.81 42.208C131.746 43.944 130.276 45.316 128.4 46.324C126.524 47.332 124.396 47.836 122.016 47.836ZM122.016 42.46C123.108 42.46 124.088 42.208 124.956 41.704C125.824 41.2 126.51 40.486 127.014 39.562C127.518 38.61 127.77 37.49 127.77 36.202C127.77 34.886 127.518 33.766 127.014 32.842C126.51 31.918 125.824 31.204 124.956 30.7C124.088 30.196 123.108 29.944 122.016 29.944C120.924 29.944 119.944 30.196 119.076 30.7C118.208 31.204 117.508 31.918 116.976 32.842C116.472 33.766 116.22 34.886 116.22 36.202C116.22 37.49 116.472 38.61 116.976 39.562C117.508 40.486 118.208 41.2 119.076 41.704C119.944 42.208 120.924 42.46 122.016 42.46ZM147.857 47.836C145.449 47.836 143.307 47.332 141.431 46.324C139.583 45.316 138.113 43.944 137.021 42.208C135.957 40.444 135.425 38.442 135.425 36.202C135.425 33.934 135.957 31.932 137.021 30.196C138.113 28.432 139.583 27.06 141.431 26.08C143.307 25.072 145.449 24.568 147.857 24.568C150.237 24.568 152.365 25.072 154.241 26.08C156.117 27.06 157.587 28.418 158.651 30.154C159.715 31.89 160.247 33.906 160.247 36.202C160.247 38.442 159.715 40.444 158.651 42.208C157.587 43.944 156.117 45.316 154.241 46.324C152.365 47.332 150.237 47.836 147.857 47.836ZM147.857 42.46C148.949 42.46 149.929 42.208 150.797 41.704C151.665 41.2 152.351 40.486 152.855 39.562C153.359 38.61 153.611 37.49 153.611 36.202C153.611 34.886 153.359 33.766 152.855 32.842C152.351 31.918 151.665 31.204 150.797 30.7C149.929 30.196 148.949 29.944 147.857 29.944C146.765 29.944 145.785 30.196 144.917 30.7C144.049 31.204 143.349 31.918 142.817 32.842C142.313 33.766 142.061 34.886 142.061 36.202C142.061 37.49 142.313 38.61 142.817 39.562C143.349 40.486 144.049 41.2 144.917 41.704C145.785 42.208 146.765 42.46 147.857 42.46ZM168.365 42.88L168.533 34.9L179.075 24.904H186.887L176.765 35.194L173.363 37.966L168.365 42.88ZM162.947 47.5V16.336H169.499V47.5H162.947ZM179.789 47.5L172.145 38.008L176.261 32.926L187.727 47.5H179.789ZM199.264 47.836C196.688 47.836 194.42 47.332 192.46 46.324C190.528 45.316 189.03 43.944 187.966 42.208C186.902 40.444 186.37 38.442 186.37 36.202C186.37 33.934 186.888 31.932 187.924 30.196C188.988 28.432 190.43 27.06 192.25 26.08C194.07 25.072 196.128 24.568 198.424 24.568C200.636 24.568 202.624 25.044 204.388 25.996C206.18 26.92 207.594 28.264 208.63 30.028C209.666 31.764 210.184 33.85 210.184 36.286C210.184 36.538 210.17 36.832 210.142 37.168C210.114 37.476 210.086 37.77 210.058 38.05H191.704V34.228H206.614L204.094 35.362C204.094 34.186 203.856 33.164 203.38 32.296C202.904 31.428 202.246 30.756 201.406 30.28C200.566 29.776 199.586 29.524 198.466 29.524C197.346 29.524 196.352 29.776 195.484 30.28C194.644 30.756 193.986 31.442 193.51 32.338C193.034 33.206 192.796 34.242 192.796 35.446V36.454C192.796 37.686 193.062 38.778 193.594 39.73C194.154 40.654 194.924 41.368 195.904 41.872C196.912 42.348 198.088 42.586 199.432 42.586C200.636 42.586 201.686 42.404 202.582 42.04C203.506 41.676 204.346 41.13 205.102 40.402L208.588 44.182C207.552 45.358 206.25 46.268 204.682 46.912C203.114 47.528 201.308 47.836 199.264 47.836ZM222.568 47.836C220.44 47.836 218.522 47.36 216.814 46.408C215.106 45.428 213.748 44.07 212.74 42.334C211.76 40.598 211.27 38.554 211.27 36.202C211.27 33.822 211.76 31.764 212.74 30.028C213.748 28.292 215.106 26.948 216.814 25.996C218.522 25.044 220.44 24.568 222.568 24.568C224.472 24.568 226.138 24.988 227.566 25.828C228.994 26.668 230.1 27.942 230.884 29.65C231.668 31.358 232.06 33.542 232.06 36.202C232.06 38.834 231.682 41.018 230.926 42.754C230.17 44.462 229.078 45.736 227.65 46.576C226.25 47.416 224.556 47.836 222.568 47.836ZM223.702 42.46C224.766 42.46 225.732 42.208 226.6 41.704C227.468 41.2 228.154 40.486 228.658 39.562C229.19 38.61 229.456 37.49 229.456 36.202C229.456 34.886 229.19 33.766 228.658 32.842C228.154 31.918 227.468 31.204 226.6 30.7C225.732 30.196 224.766 29.944 223.702 29.944C222.61 29.944 221.63 30.196 220.762 30.7C219.894 31.204 219.194 31.918 218.662 32.842C218.158 33.766 217.906 34.886 217.906 36.202C217.906 37.49 218.158 38.61 218.662 39.562C219.194 40.486 219.894 41.2 220.762 41.704C221.63 42.208 222.61 42.46 223.702 42.46ZM229.624 47.5V42.88L229.75 36.16L229.33 29.482V16.336H235.882V47.5H229.624Z" fill="white"/>
<defs>
<clipPath id="clip0_1739_151">
<rect width="64" height="64" fill="white"/>
</clipPath>
</defs>
</svg>
